<svg width="12" height="12" viewBox="0 0 12 12" fill="none" xmlns="http://www.w3.org/2000/svg">
<path fill-rule="evenodd" clip-rule="evenodd" d="M9.44192 7.98607C10.766 5.98755 10.5476 3.26837 8.78679 1.50757C6.7767 -0.502523 3.51766 -0.502523 1.50757 1.50757C-0.502523 3.51766 -0.502523 6.7767 1.50757 8.78679C3.26837 10.5476 5.98755 10.766 7.98607 9.44192L10.2426 11.6985C10.6447 12.1005 11.2964 12.1005 11.6985 11.6985C12.1005 11.2964 12.1005 10.6447 11.6985 10.2426L9.44192 7.98607ZM7.33095 2.96341C8.53701 4.16948 8.53701 6.12488 7.33095 7.33095C6.12488 8.53701 4.16948 8.53701 2.96341 7.33095C1.75735 6.12488 1.75735 4.16948 2.96341 2.96341C4.16948 1.75735 6.12488 1.75735 7.33095 2.96341Z" fill="#888896"/>
</svg>
